<svg xmlns="http://www.w3.org/2000/svg"  viewBox="0 0 100 100" width="50px" height="50px"><circle cx="78" cy="14" r="1" fill="#f1bc19"/><circle cx="50" cy="50" r="38" fill="#f9dbd2"/><circle cx="84" cy="16" r="4" fill="#f1bc19"/><circle cx="14" cy="26" r="2" fill="#ee3e54"/><circle cx="78" cy="77" r="2" fill="#fbcd59"/><circle cx="17" cy="78" r="4" fill="#fbcd59"/><circle cx="24" cy="83" r="2" fill="#ee3e54"/><circle cx="66.483" cy="78.517" r="2.483" fill="#fff"/><circle cx="16" cy="48" r="1" fill="#fff"/><circle cx="86" cy="31" r="1" fill="#f1bc19"/><circle cx="80" cy="66" r="2" fill="#fff"/><g><polygon fill="#fff" points="74.092,50.226 68.069,44.203 62.046,38.18 56.023,32.157 50,26.134 43.977,32.157 37.954,38.18 31.931,44.203 25.908,50.226 19.885,56.249 25.908,62.272 31.931,56.249 37.954,62.272 43.977,56.249 50,62.272 56.023,56.249 62.046,62.272 68.069,56.249 74.092,62.272 80.115,56.249"/><rect width="8.281" height="8.281" x="45.859" y="27.85" fill="#68c8d0" transform="rotate(-45.001 49.999 31.99)"/><rect width="8.057" height="8.281" x="34.171" y="39.648" fill="#f9b450" transform="rotate(-45.001 38.2 43.79)"/><rect width="8.754" height="8.518" x="21.614" y="51.906" fill="#68c8d0" transform="rotate(-45.001 25.99 56.165)"/><rect width="8.281" height="8.518" x="57.821" y="39.693" fill="#f9b450" transform="rotate(-45.001 61.962 43.953)"/><rect width="8.518" height="8.518" x="45.74" y="39.609" fill="#f9b450" transform="rotate(-45.001 49.999 43.869)"/><rect width="8.754" height="8.754" x="33.576" y="51.704" fill="#68c8d0" transform="rotate(-45.001 37.953 56.082)"/><rect width="8.293" height="8.754" x="45.689" y="51.867" fill="#68c8d0" transform="rotate(-45.001 49.835 56.245)"/><rect width="8.754" height="8.754" x="57.668" y="51.704" fill="#68c8d0" transform="rotate(-45.001 62.045 56.082)"/><rect width="8.518" height="8.287" x="69.913" y="52.187" fill="#68c8d0" transform="rotate(-45.001 74.171 56.331)"/><g><path fill="#472b29" d="M72.776,51.706c-0.128,0-0.256-0.049-0.354-0.146c-0.195-0.195-0.195-0.512,0-0.707l1.148-1.147 l0.707,0.707L73.13,51.56C73.032,51.657,72.904,51.706,72.776,51.706z"/><path fill="#472b29" d="M71.955,52.028c-0.195-0.195-0.512-0.195-0.707,0l-3.18,3.179L44.497,31.636l-0.707,0.707 l23.738,23.738l0.186,0.186c0.195,0.195,0.512,0.195,0.707,0l3.534-3.532C72.15,52.54,72.15,52.223,71.955,52.028z"/><path fill="#472b29" d="M67.547,43.682L56.022,55.207l-4.354-4.354c-0.195-0.195-0.512-0.195-0.707,0 c-0.195,0.195-0.195,0.512,0,0.707l4.708,4.708c0.098,0.097,0.226,0.146,0.354,0.146s0.256-0.049,0.353-0.146l11.878-11.879 L67.547,43.682z"/><rect width="1" height="16.799" x="43.561" y="35.552" fill="#472b29" transform="rotate(-45.001 44.06 43.952)"/><path fill="#472b29" d="M61.525,37.659L43.977,55.206l-8.514-8.513c-0.195-0.195-0.512-0.195-0.707,0s-0.195,0.512,0,0.707 l8.867,8.867c0.195,0.195,0.512,0.195,0.707,0l17.901-17.901L61.525,37.659z"/><path fill="#472b29" d="M33.747,46.184c-0.128,0-0.256-0.049-0.354-0.146l-1.648-1.648l0.707-0.707L34.1,45.33 c0.195,0.195,0.195,0.512,0,0.707C34.002,46.135,33.875,46.184,33.747,46.184z"/><path fill="#472b29" d="M55.501,31.636l-23.57,23.571l-5.502-5.501l-0.707,0.707l5.855,5.855 c0.098,0.097,0.226,0.146,0.354,0.146c0.128,0,0.256-0.049,0.354-0.146l23.923-23.925L55.501,31.636z"/></g><path fill="#472b29" d="M50,62.972c-0.179,0-0.358-0.068-0.495-0.205l-5.528-5.527l-5.528,5.527 c-0.273,0.273-0.717,0.273-0.99,0l-5.528-5.527l-5.528,5.527c-0.273,0.273-0.717,0.273-0.99,0l-6.023-6.022 c-0.131-0.132-0.205-0.31-0.205-0.495s0.074-0.363,0.205-0.495L49.505,25.64c0.263-0.262,0.728-0.262,0.99,0L80.61,55.754 c0.131,0.132,0.205,0.31,0.205,0.495s-0.074,0.363-0.205,0.495l-6.023,6.022c-0.273,0.273-0.717,0.273-0.99,0l-5.527-5.527 l-5.528,5.527c-0.273,0.273-0.717,0.273-0.99,0l-5.527-5.527l-5.528,5.527C50.358,62.903,50.179,62.972,50,62.972z M43.977,55.549 c0.179,0,0.358,0.068,0.495,0.205L50,61.281l5.528-5.527c0.273-0.273,0.717-0.273,0.99,0l5.527,5.527l5.528-5.527 c0.273-0.273,0.717-0.273,0.99,0l5.527,5.527l5.033-5.032L50,27.124L20.875,56.249l5.033,5.032l5.528-5.527 c0.273-0.273,0.717-0.273,0.99,0l5.528,5.527l5.528-5.527C43.619,55.617,43.798,55.549,43.977,55.549z"/></g></svg>