<svg xmlns="http://www.w3.org/2000/svg" width="512" height="512" viewBox="0 0 512 512" version="1.1"><path d="" stroke="none" fill="#080404" fill-rule="evenodd"/><path d="M 240.500 2.018 C 220.297 8.434, 202.336 27.400, 178.012 68 C 165.604 88.711, 131.668 150.588, 130.347 154.909 C 128.249 161.775, 128.692 171.368, 131.598 182 C 138.011 205.468, 151.043 249.288, 152.558 252.480 C 155.042 257.715, 160.644 263.441, 168.500 268.775 C 174.016 272.519, 175.500 274.054, 175.500 276.013 C 175.500 280.045, 171.906 279.681, 164.790 274.926 C 154.137 267.809, 148.148 261.147, 144.901 252.800 L 143.461 249.099 109.076 266.752 C 71.436 286.076, 68.004 288.480, 62.784 299.172 C 59.205 306.503, 59.846 303.169, 46.486 384 C 33.984 459.650, 33.825 461.253, 37.793 471.699 C 43.719 487.293, 57.486 497.470, 74.404 498.763 L 81.308 499.291 80.627 495.895 C 77.773 481.655, 77.414 482, 95.100 482 L 108.955 482 109.227 399.676 L 109.500 317.353 112.184 313.298 C 113.801 310.855, 116.611 308.399, 119.250 307.121 L 123.631 305 255.751 305 C 346.667 305, 388.748 305.332, 390.685 306.064 C 394.516 307.511, 398.958 311.826, 400.623 315.718 C 401.754 318.362, 402 333.386, 402 399.968 L 402 481 415.750 481.015 C 423.313 481.024, 430.120 481.423, 430.878 481.904 C 431.892 482.546, 432.127 484.325, 431.767 488.638 C 431.498 491.862, 430.942 495.287, 430.532 496.250 C 429.870 497.804, 430.451 498, 435.712 498 C 451.802 498, 465.969 488.619, 473.299 473.111 C 478.636 461.819, 478.581 461.174, 465.555 382 C 459.176 343.225, 453.246 309.254, 452.379 306.509 C 451.511 303.764, 449.706 299.649, 448.368 297.365 C 443.319 288.749, 438.030 285.210, 403.305 267.208 C 385.047 257.744, 369.873 250, 369.584 250 C 369.295 250, 367.915 252.418, 366.516 255.374 C 362.963 262.884, 357.118 269.151, 348.215 274.996 C 339.974 280.406, 338.872 280.756, 337.040 278.548 C 334.964 276.047, 336.770 273.658, 344.478 268.705 C 352.303 263.677, 357.985 257.681, 360.383 251.923 C 363.346 244.807, 383.245 172.259, 383.676 167 C 383.925 163.970, 383.517 159.244, 382.769 156.476 C 381.424 151.502, 349.582 93.612, 333.208 66.371 C 308.936 25.991, 288.852 5.891, 267.972 1.079 C 260.730 -0.589, 247.261 -0.129, 240.500 2.018 M 249.647 117.099 C 243.975 117.927, 235.978 120.968, 195.148 137.819 C 173.894 146.591, 170.432 148.960, 166.387 157.500 C 161.860 167.059, 163.463 174.999, 176.309 206.655 C 190.485 241.591, 196.081 253.124, 201.508 258.596 C 204.949 262.066, 208.400 264.380, 212.319 265.846 C 217.835 267.910, 219.633 268, 255.500 268 C 298.649 268, 299.756 267.817, 308.825 259.201 C 314.922 253.409, 314.531 254.195, 332.561 211.500 C 340.691 192.250, 347.715 176.350, 348.171 176.167 C 349.542 175.615, 349.104 162.185, 347.597 158.578 C 345.696 154.028, 339.421 147.252, 335.068 145.050 C 333.106 144.057, 317.724 137.571, 300.887 130.637 C 278.579 121.451, 268.405 117.761, 263.387 117.035 C 259.599 116.488, 256.275 116.086, 256 116.142 C 255.725 116.198, 252.866 116.629, 249.647 117.099 M 121.904 313.665 C 116.207 317.201, 116.522 311.528, 116.231 415.750 L 115.961 512 255.981 512 L 396 512 396 416.450 C 396 311.553, 396.302 316.759, 390.033 313.517 C 387.454 312.183, 371.241 312.003, 255.800 312.027 C 136.827 312.051, 124.256 312.204, 121.904 313.665 M 246.054 386.728 C 240.018 388.859, 232.781 396.260, 230.667 402.463 C 227.092 412.955, 229.413 423.508, 236.952 431.048 C 253.164 447.259, 280.923 437.287, 282.744 414.597 C 284.380 394.224, 265.481 379.869, 246.054 386.728 M 87.009 491.250 C 87.023 494.583, 92.486 503.506, 96.288 506.406 C 99.597 508.930, 106.007 512, 107.968 512 C 108.618 512, 109 507.739, 109 500.500 L 109 489 98 489 C 87.256 489, 87 489.052, 87.009 491.250 M 403 500.567 C 403 512.100, 403.007 512.133, 405.250 511.448 C 413.669 508.876, 419.857 503.728, 423.094 496.601 C 426.517 489.062, 426.443 489, 414 489 L 403 489 403 500.567" stroke="none" fill="#040404" fill-rule="evenodd"/></svg>